<svg width="46" height="46" viewBox="0 0 46 46" fill="none" xmlns="http://www.w3.org/2000/svg">
  <g>
	<path d="M45.5 23.5c0-1.6-.1-3.1-.4-4.6H23.5v9h12.3c-.5 2.7-2.1 5-4.4 6.6v5.5h7.1c4.2-3.9 6.6-9.6 6.6-16.5z" fill="#4285F4"/>
	<path d="M23.5 46c6 0 11-2 14.7-5.5l-7.1-5.5c-2 1.3-4.6 2.1-7.6 2.1-5.8 0-10.7-3.9-12.5-9.1H3.6v5.7C7.3 42.1 14.7 46 23.5 46z" fill="#34A853"/>
	<path d="M11 28c-.5-1.3-.8-2.7-.8-4.1s.3-2.8.8-4.1v-5.7H3.6C1.3 17.2 0 20.1 0 23s1.3 5.8 3.6 8.1L11 28z" fill="#FBBC05"/>
	<path d="M23.5 9.1c3.3 0 6.2 1.1 8.5 3.2l6.4-6.4C34.5 2.1 29.5 0 23.5 0 14.7 0 7.3 3.9 3.6 10.2l7.4 5.7c1.8-5.2 6.7-9.1 12.5-9.1z" fill="#EA4335"/>
  </g>
</svg>